<svg width="20" height="20" viewBox="0 0 20 20" fill="none" xmlns="http://www.w3.org/2000/svg">
<rect width="20" height="20" rx="3" fill="#DDE0EA"/>
<mask id="mask0_592_3039" style="mask-type:alpha" maskUnits="userSpaceOnUse" x="0" y="0" width="20" height="20">
<rect width="20" height="20" fill="#D9D9D9"/>
</mask>
<g mask="url(#mask0_592_3039)">
<path d="M7.95824 14.7605C7.83384 14.7605 7.71556 14.7398 7.60339 14.6985C7.49122 14.6571 7.38849 14.5898 7.2952 14.4965L3.71187 10.9131C3.53584 10.7371 3.4513 10.5126 3.45824 10.2397C3.46519 9.96672 3.55667 9.74223 3.7327 9.56621C3.90873 9.39018 4.1314 9.30216 4.40072 9.30216C4.67004 9.30216 4.89272 9.39018 5.06874 9.56621L7.95824 12.4557L14.9311 5.48287C15.1071 5.30685 15.3316 5.218 15.6045 5.21633C15.8775 5.21468 16.1036 5.30353 16.283 5.48287C16.459 5.6589 16.547 5.88422 16.547 6.15883C16.547 6.43343 16.459 6.65874 16.283 6.83477L8.62128 14.4965C8.52799 14.5898 8.42526 14.6571 8.3131 14.6985C8.20093 14.7398 8.08265 14.7605 7.95824 14.7605Z" fill="white"/>
</g>
</svg>
